<svg xmlns="http://www.w3.org/2000/svg" xmlns:xlink="http://www.w3.org/1999/xlink" width="18" height="16" version="1.1" viewBox="0 0 18 16"><title>upload-icon</title><desc>Created with Sketch.</desc><g id="Symbols" fill="none" fill-rule="evenodd" stroke="none" stroke-width="1"><g id="upload-icon"><g id="Group" transform="translate(0.000000, 1.000000)"><path id="Page-1" fill="#2B8500" d="M12.3195392,13 L13.7183921,13 C16.0468136,13 17.7980887,11.0238225 17.9858024,8.74720742 C18.1555162,6.68856608 16.7900918,4.79542336 14.6198127,4.79542336 C14.6198127,1.87295996 11.7333929,0 8.99354406,0 C6.25240955,0 3.75941713,2.28065168 3.75941713,4.79542336 C1.06199677,5.29191921 0,7.18640745 0,8.4646488 C0,10.2084391 1.15700174,13 4.1642783,13 L6.09155815,13"/><path id="Line" stroke="#FFF" stroke-width="1.1" d="M9,6.54377079 L9,13.0002136"/><path id="Line-Copy" stroke="#FFF" stroke-linecap="round" stroke-width="1.1" d="M9,6 L11.5,8.5"/><path id="Line-Copy-2" stroke="#FFF" stroke-linecap="round" stroke-width="1.1" d="M6,6 L8.5,8.5" transform="translate(7.500000, 7.500000) scale(-1, 1) translate(-7.500000, -7.500000)"/></g></g></g></svg>